<svg width="83" height="80" viewBox="0 0 83 80" fill="none" xmlns="http://www.w3.org/2000/svg">
<path d="M33 4.02416C36.3333 1.85749 45.9 -1.27584 57.5 3.52416C69.1 8.32416 72.6667 20.8575 73 26.5242C72.8333 27.3575 73.5 30.1242 77.5 34.5242C81.5 38.9242 81.8333 41.0242 81.5 41.5242C81.5 42.5242 79.8 44.9242 73 46.5242C73 52.9242 73 58.5242 73 60.5242C73 61.8575 72 64.6242 68 65.0242C64 65.4242 58.3333 64.8575 56 64.5242C55 64.3575 53 64.6242 53 67.0242C53 69.4242 53.1667 69.8333 53 70" stroke="white" stroke-width="2" stroke-linecap="round"/>
<path d="M56.9995 74.3609C56.9814 75.8206 56.4689 76.6817 55.6331 77.2648C54.7015 77.9149 53.2544 78.2984 51.2531 78.4714C49.2733 78.6427 46.8996 78.5986 44.2125 78.5073C43.6807 78.4893 43.1372 78.4694 42.5833 78.4491C40.3588 78.3677 37.9675 78.2802 35.5 78.2802C34.0811 78.2802 32.8009 78.2926 31.635 78.3039C30.251 78.3174 29.0283 78.3293 27.9264 78.3169C25.9005 78.2942 24.4639 78.1871 23.4308 77.8973C22.4491 77.6219 21.9177 77.2072 21.5804 76.5838C21.2057 75.8912 21 74.8146 21 73.065C21 71.5433 21.509 70.6786 22.3028 70.1189C23.1735 69.505 24.523 69.1611 26.3748 69.0455C28.2054 68.9313 30.3785 69.0464 32.7922 69.228C33.4548 69.2779 34.1358 69.3328 34.8303 69.3888C36.6403 69.5347 38.5423 69.688 40.4524 69.779C42.9711 69.8989 45.1236 69.9626 46.9474 70.0166C47.7532 70.0404 48.4949 70.0624 49.1756 70.0864C51.4305 70.1661 52.9811 70.269 54.0967 70.5155C55.1771 70.7543 55.7198 71.1004 56.0815 71.5849C56.4755 72.1126 56.7564 72.9343 56.9995 74.3609Z" stroke="white" stroke-width="2"/>
<path d="M26 52L26 69" stroke="white" stroke-width="2" stroke-linecap="round"/>
<path d="M66.4978 31L68.9741 34.2228C69.4638 34.8597 69.7973 35.6714 69.9326 36.5551C70.0678 37.4388 69.9986 38.3548 69.7338 39.1873C69.469 40.0199 69.0204 40.7314 68.4447 41.2321C67.8691 41.7328 67.1923 42 66.5 42C65.8077 42 65.1309 41.7328 64.5553 41.2321C63.9796 40.7314 63.531 40.0199 63.2662 39.1873C63.0014 38.3548 62.9322 37.4388 63.0674 36.5551C63.2027 35.6714 63.5362 34.8597 64.0259 34.2228L66.4978 31Z" stroke="white" stroke-width="2" stroke-linecap="round" stroke-linejoin="round"/>
<path d="M44 11C46.5 13 51.4 19.4 51 29C50.5 41 41 47 39 48C37 49 29.5 53 20 50C12.5 47 11.5 45.5 10 44" stroke="white" stroke-width="2" stroke-linecap="round"/>
<path d="M7.03633 41.1496C4.03633 37.3163 -0.76367 27.1496 4.03633 17.1496C10.0363 4.64958 22.0363 3.14958 23.0363 3.14958C24.0363 3.14958 31.0363 1.64958 41.0363 8.14958" stroke="white" stroke-width="2" stroke-linecap="round"/>
<path d="M38.1141 20.9476C37.4757 20.3302 36.7176 19.8404 35.8833 19.5062C35.049 19.172 34.1547 19 33.2516 19C32.3485 19 31.4542 19.172 30.6199 19.5062C29.7856 19.8404 29.0276 20.3302 28.3891 20.9476L27.0641 22.2285L25.7391 20.9476C24.4495 19.701 22.7004 19.0006 20.8766 19.0006C19.0528 19.0006 17.3037 19.701 16.0141 20.9476C14.7245 22.1943 14 23.885 14 25.648C14 27.411 14.7245 29.1018 16.0141 30.3485L17.3391 31.6293L27.0641 41.0301L36.7891 31.6293L38.1141 30.3485C38.7529 29.7313 39.2596 28.9985 39.6053 28.192C39.951 27.3855 40.1289 26.521 40.1289 25.648C40.1289 24.775 39.951 23.9106 39.6053 23.1041C39.2596 22.2976 38.7529 21.5648 38.1141 20.9476Z" stroke="white" stroke-width="2" stroke-linecap="round" stroke-linejoin="round"/>
</svg>
