<svg width="85" height="88" viewBox="0 0 85 88" fill="none" xmlns="http://www.w3.org/2000/svg">
<path d="M53.5 16V35.5C53.6667 37.3333 54.9 41 58.5 41C62.1 41 73.3333 41 78.5 41C80.3333 40.8333 84 39.6 84 36C84 32.4 84 14.8333 84 6.5C83.8333 4.66667 82.5 1 78.5 1C74.5378 1 63.707 1 58.6432 1C58.5458 1 58.4531 1.01353 58.3605 1.04365C56.6546 1.59887 53.5 3.38696 53.5 6.5C53.5 9.7 53.5 10.5 53.5 11" stroke="white" stroke-width="2" stroke-linecap="round"/>
<path d="M13.5668 30C15.2335 31.1666 17.5 32.5 17.9999 30C18.6862 26.5679 17.5 25 19 23.5C21.3995 22.0603 23.3384 23.3842 27.9111 24.3772C28.2981 24.4612 28.7021 24.4597 29.0904 24.3816C35.7194 23.048 37.3627 22.6118 38.3448 24.6458C38.4555 24.8749 38.5 25.1307 38.5 25.3852V27.5V29.4338C38.5 30.105 38.816 30.737 39.3529 31.1397V31.1397C40.0465 31.6599 40.986 31.7084 41.7295 31.2623L43 30.5M43 30.5C43.3333 26.3333 42.2455 18.8091 38.5 16C34.4999 13 19.455 12.4717 16 18C13.5001 22.0001 14.697 21.7212 13.4999 30.5C11.9999 41.5 16.7723 36.451 16.9999 38.5C17.4999 43 17.9999 44.5 21.9999 47M43 30.5L43.3944 31.2888C43.4639 31.4277 43.5 31.5808 43.5 31.7361L43.4999 36C43.646 36.4382 43.152 38.0284 41.0084 38.0784C40.4514 38.0913 39.9331 38.4532 39.8224 38.9993C38.6679 44.6934 35.7622 46.3954 34.4999 47.5M34.4999 47.5L35.9999 53M34.4999 47.5C32.4999 48.5 26.9999 50.5 21.9999 47M21.9999 47C21.5999 51.4 20.8332 53 20.4999 53C21.4999 52 21.9999 49.5 21.9999 47Z" stroke="white" stroke-width="2" stroke-linecap="round"/>
<path d="M6 60C4.66667 61.1667 2.2 63.7 1 68.5C1 74.9 1 79.8333 1 81.5C1.16667 82.8333 2.3 85.6 5.5 86C12.7 86 40.1667 86 53 86C54.1667 86.1667 57.05 85 59.5 81.5C62.0766 77.8191 66.2623 71.8864 68.4722 68.6255C68.7705 68.1853 68.666 67.5918 68.2398 67.2738L61.3208 62.1123C60.8707 61.7765 60.2324 61.8771 59.9073 62.3351L56 67.8409M49.5 77L56 67.8409M56 67.8409C54.5 63.5606 48.6 54.6 37 53C30.6 58.2 28.6667 60.1667 28.5 60.5L20 53C18.8333 52.8333 15.1 53.4 9.5 57M10.5 72.5C10.6667 73.6667 11.7 76 14.5 76C17.3 76 24 76 27 76V79.5M27 85V79.5M27 79.5C28.6667 78.6667 32.8 76.7 34 77.5C35.5 78.5 34 79.5 37 80C40 80.5 40.5 80 42 81.5C43.5 83 42.3333 84.3333 41.5 85M69 67L75.8828 57.659C75.9602 57.554 76.0169 57.435 76.0459 57.3079C76.4833 55.3851 76.5331 52.2919 72.2435 53.2974C71.7631 53.41 71.3647 53.7393 71.0866 54.1469C69.386 56.6401 67.7207 57.0694 66.7326 56.8615C66.2135 56.7522 65.6418 56.4126 65.2226 56.7376C64.4446 57.3406 64.3157 59.1273 64 62.5" stroke="white" stroke-width="2" stroke-linecap="round"/>
<path d="M66.5 14C66.5 16.5771 64.6216 18.5 62.5 18.5C60.3784 18.5 58.5 16.5771 58.5 14C58.5 11.4229 60.3784 9.5 62.5 9.5C64.6216 9.5 66.5 11.4229 66.5 14Z" stroke="white" stroke-width="2"/>
<path d="M78.5 29C78.5 31.5771 76.6216 33.5 74.5 33.5C72.3784 33.5 70.5 31.5771 70.5 29C70.5 26.4229 72.3784 24.5 74.5 24.5C76.6216 24.5 78.5 26.4229 78.5 29Z" stroke="white" stroke-width="2"/>
<path d="M62.5978 34.0685L73.5978 11.0685" stroke="white" stroke-width="2" stroke-linecap="round"/>
</svg>
