<svg width="54" height="54" viewBox="0 0 54 54" fill="none" xmlns="http://www.w3.org/2000/svg">
<path d="M40.5 0H21.9375C20.0737 0 18.5625 1.51116 18.5625 3.375H37.125V16.875H50.625V43.875H38.8125V47.25H50.625C52.4888 47.25 54 45.7388 54 43.875V13.5008L40.5 0ZM40.5 13.5V4.77225L49.2261 13.5H40.5ZM3.375 6.75C1.51116 6.75 0 8.26116 0 10.125V50.625C0 52.4888 1.51116 54 3.375 54H32.0625C33.9263 54 35.4375 52.4888 35.4375 50.625V20.2508L21.9375 6.75H3.375ZM32.0625 50.625H3.375V10.125H18.5625V23.625H32.0625V50.625ZM21.9375 20.25V11.5223L30.6636 20.25H21.9375Z" fill="#009DE2"/>
</svg>
