<svg width="54" height="54" viewBox="0 0 54 54" fill="none" xmlns="http://www.w3.org/2000/svg">
<path d="M16.875 23.625C16.4004 23.625 15.9609 23.5371 15.5566 23.3613C15.1523 23.1855 14.8008 22.9482 14.502 22.6494C14.2031 22.3506 13.957 21.9902 13.7637 21.5684C13.5703 21.1465 13.4824 20.707 13.5 20.25C13.5 19.7754 13.5879 19.3359 13.7637 18.9316C13.9395 18.5273 14.1768 18.1758 14.4756 17.877C14.7744 17.5781 15.1348 17.332 15.5566 17.1387C15.9785 16.9453 16.418 16.8574 16.875 16.875C17.3496 16.875 17.7891 16.9629 18.1934 17.1387C18.5977 17.3145 18.9492 17.5518 19.248 17.8506C19.5469 18.1494 19.793 18.5098 19.9863 18.9316C20.1797 19.3535 20.2676 19.793 20.25 20.25C20.25 20.7246 20.1621 21.1641 19.9863 21.5684C19.8105 21.9727 19.5732 22.3242 19.2744 22.623C18.9756 22.9219 18.6152 23.168 18.1934 23.3613C17.7715 23.5547 17.332 23.6426 16.875 23.625ZM37.125 16.875C37.5996 16.875 38.0391 16.9629 38.4434 17.1387C38.8477 17.3145 39.1992 17.5518 39.498 17.8506C39.7969 18.1494 40.043 18.5098 40.2363 18.9316C40.4297 19.3535 40.5176 19.793 40.5 20.25C40.5 20.7246 40.4121 21.1641 40.2363 21.5684C40.0605 21.9727 39.8232 22.3242 39.5244 22.623C39.2256 22.9219 38.8652 23.168 38.4434 23.3613C38.0215 23.5547 37.582 23.6426 37.125 23.625C36.6504 23.625 36.2109 23.5371 35.8066 23.3613C35.4023 23.1855 35.0508 22.9482 34.752 22.6494C34.4531 22.3506 34.207 21.9902 34.0137 21.5684C33.8203 21.1465 33.7324 20.707 33.75 20.25C33.75 19.7754 33.8379 19.3359 34.0137 18.9316C34.1895 18.5273 34.4268 18.1758 34.7256 17.877C35.0244 17.5781 35.3848 17.332 35.8066 17.1387C36.2285 16.9453 36.668 16.8574 37.125 16.875ZM27 0C29.4785 0 31.8691 0.316406 34.1719 0.949219C36.4746 1.58203 38.6279 2.4873 40.6318 3.66504C42.6357 4.84277 44.4551 6.24902 46.0898 7.88379C47.7246 9.51855 49.1309 11.3467 50.3086 13.3682C51.4863 15.3896 52.3916 17.543 53.0244 19.8281C53.6572 22.1133 53.9824 24.5039 54 27C54 29.4785 53.6836 31.8691 53.0508 34.1719C52.418 36.4746 51.5127 38.6279 50.335 40.6318C49.1572 42.6357 47.751 44.4551 46.1162 46.0898C44.4814 47.7246 42.6533 49.1309 40.6318 50.3086C38.6104 51.4863 36.457 52.3916 34.1719 53.0244C31.8867 53.6572 29.4961 53.9824 27 54C24.5215 54 22.1309 53.6836 19.8281 53.0508C17.5254 52.418 15.3721 51.5127 13.3682 50.335C11.3643 49.1572 9.54492 47.751 7.91016 46.1162C6.27539 44.4814 4.86914 42.6533 3.69141 40.6318C2.51367 38.6104 1.6084 36.4658 0.975586 34.1982C0.342773 31.9307 0.0175781 29.5312 0 27C0 24.5215 0.316406 22.1309 0.949219 19.8281C1.58203 17.5254 2.4873 15.3721 3.66504 13.3682C4.84277 11.3643 6.24902 9.54492 7.88379 7.91016C9.51855 6.27539 11.3467 4.86914 13.3682 3.69141C15.3896 2.51367 17.5342 1.6084 19.8018 0.975586C22.0693 0.342773 24.4688 0.0175781 27 0ZM27 50.625C29.1621 50.625 31.2451 50.3438 33.249 49.7812C35.2529 49.2188 37.1338 48.4277 38.8916 47.4082C40.6494 46.3887 42.249 45.1494 43.6904 43.6904C45.1318 42.2314 46.3623 40.6406 47.3818 38.918C48.4014 37.1953 49.2012 35.3145 49.7812 33.2754C50.3613 31.2363 50.6426 29.1445 50.625 27C50.625 24.8379 50.3438 22.7549 49.7812 20.751C49.2188 18.7471 48.4277 16.8662 47.4082 15.1084C46.3887 13.3506 45.1494 11.751 43.6904 10.3096C42.2314 8.86816 40.6406 7.6377 38.918 6.61816C37.1953 5.59863 35.3145 4.79883 33.2754 4.21875C31.2363 3.63867 29.1445 3.35742 27 3.375C24.8379 3.375 22.7549 3.65625 20.751 4.21875C18.7471 4.78125 16.8662 5.57227 15.1084 6.5918C13.3506 7.61133 11.751 8.85059 10.3096 10.3096C8.86816 11.7686 7.6377 13.3594 6.61816 15.082C5.59863 16.8047 4.79883 18.6855 4.21875 20.7246C3.63867 22.7637 3.35742 24.8555 3.375 27C3.375 29.1621 3.65625 31.2451 4.21875 33.249C4.78125 35.2529 5.57227 37.1338 6.5918 38.8916C7.61133 40.6494 8.85059 42.249 10.3096 43.6904C11.7686 45.1318 13.3594 46.3623 15.082 47.3818C16.8047 48.4014 18.6855 49.2012 20.7246 49.7812C22.7637 50.3613 24.8555 50.6426 27 50.625ZM27 33.75C29.4258 33.75 31.7197 34.2422 33.8818 35.2266C36.0439 36.2109 37.9424 37.6172 39.5771 39.4453L37.0459 41.6865C35.7451 40.2275 34.2422 39.1025 32.5371 38.3115C30.832 37.5205 28.9863 37.125 27 37.125C25.0312 37.125 23.1943 37.5205 21.4893 38.3115C19.7842 39.1025 18.2725 40.2275 16.9541 41.6865L14.4229 39.4453C16.04 37.6348 17.9297 36.2373 20.0918 35.2529C22.2539 34.2686 24.5566 33.7676 27 33.75Z" fill="#009DE2"/>
</svg>
