<svg width="90" height="72" viewBox="0 0 90 72" fill="none" xmlns="http://www.w3.org/2000/svg">
<path d="M28.5 24L16.9961 30.7106C16.6889 30.8898 16.5 31.2187 16.5 31.5744V34.9116C16.5 35.2748 16.6969 35.6094 17.0144 35.7858L29.7735 42.8742C29.922 42.9567 30.0892 43 30.2591 43H37.223C37.4043 43 37.5821 42.9507 37.7375 42.8575L50 35.5M50 35.5L55.5 38.5M50 35.5L24 20.3088M55.5 38.5L33.5268 52.6605C33.2046 52.8681 32.7921 52.8733 32.4648 52.6738L9.20513 38.5M55.5 38.5V48M55.5 57.5L65 52M55.5 57.5V48M55.5 57.5L33.5118 70.6929C33.1965 70.8821 32.8029 70.883 32.4868 70.6953L2.3972 52.8296C1.75657 52.4492 1.74194 51.527 2.37018 51.1265L8.5 47.2188M65 52L86.1333 39.7896C86.7686 39.4226 86.8055 38.5192 86.2023 38.1016L81 34.5M65 52V44M65 33.5L59.5 30M65 33.5V44M65 33.5L81 24.3571M59.5 30L71.5145 22.7913C71.8157 22.6106 72 22.2851 72 21.9338V18.0706C72 17.717 71.8132 17.3896 71.5087 17.2097L61.2354 11.1391C61.0813 11.048 60.9056 11 60.7266 11H53.2678C53.0923 11 52.92 11.0461 52.7681 11.1338L40 18.5M59.5 30L40 18.5M40 18.5L33 15M33 15L56.5022 1.29036C56.8103 1.11064 57.1908 1.10863 57.5008 1.28508L87.9762 18.6326C88.6493 19.0158 88.6501 19.9857 87.9776 20.3699L81 24.3571M33 15L24 20.3088M55.5 48L33.4936 60.7148C33.1877 60.8916 32.8111 60.8937 32.5031 60.7205L8.5 47.2188M9.20513 38.5L2.44415 34.38C1.79466 33.9842 1.80724 33.037 2.46701 32.6586L24 20.3088M9.20513 38.5L2.57854 42.1343C1.89059 42.5116 1.88529 43.498 2.56914 43.8826L8.5 47.2188M81 34.5L65 44M81 34.5L88.0902 29.9122C88.7264 29.5005 88.6914 28.5583 88.0263 28.195L81 24.3571M30 36L36.5 31.5" stroke="white" stroke-width="2" stroke-linecap="round"/>
<path d="M56 22L61.5 18" stroke="white" stroke-width="2" stroke-linecap="round"/>
</svg>
