<svg width="104" height="69" viewBox="0 0 104 69" fill="none" xmlns="http://www.w3.org/2000/svg">
<path id="Vector 25" d="M103.494 2.14316C103.573 1.31852 102.968 0.585916 102.144 0.506853C101.319 0.42779 100.586 1.0322 100.507 1.85685L103.494 2.14316ZM2.50028 68.5003L16.1735 57.8681L0.129128 51.3429L2.50028 68.5003ZM100.507 1.85685C99.5586 11.7507 94.8025 17.878 87.7957 22.1057C80.6777 26.4006 71.2485 28.7257 61.0156 30.8187C50.8796 32.8919 39.9705 34.7336 30.303 38.1268C20.6047 41.5308 11.9288 46.5661 6.32707 55.1812L8.84215 56.8166C13.9362 48.9823 21.9108 44.2517 31.2966 40.9575C40.7133 37.6523 51.3221 35.8635 61.6167 33.7579C71.8144 31.6721 81.7286 29.2704 89.3456 24.6744C97.0739 20.0113 102.445 13.0838 103.494 2.14316L100.507 1.85685Z" fill="#038FD2"/>
</svg>
