<svg width="131" height="132" viewBox="0 0 131 132" fill="none" xmlns="http://www.w3.org/2000/svg">
  <path d="M2.48155 0.435795C1.66082 0.323137 0.904158 0.897144 0.7915 1.71788C0.678843 2.53861 1.25285 3.29527 2.07358 3.40793L2.48155 0.435795ZM34.3235 127.85L51.1811 131.828L46.1973 115.24L34.3235 127.85ZM2.07358 3.40793C34.9614 7.92228 62.7389 15.0595 83.7515 23.8757C104.832 32.7202 118.843 43.1459 124.585 54.0665C127.429 59.4756 128.246 65.0031 126.91 70.5981C125.567 76.2221 122.015 82.0487 115.88 87.9511C103.581 99.7828 81.185 111.649 46.7993 122.536L47.7049 125.396C82.2334 114.463 105.16 102.427 117.959 90.113C124.373 83.9426 128.314 77.6356 129.828 71.295C131.349 64.9255 130.388 58.6576 127.24 52.6703C120.998 40.798 106.166 30.0267 84.9121 21.1093C63.5907 12.1636 35.5431 4.974 2.48155 0.435795L2.07358 3.40793Z" fill="#038FD2" />
</svg>
