<svg width="121" height="78" fill="none" xmlns="http://www.w3.org/2000/svg"><g clip-path="url(#clip0)"><path d="M35.5 36.9h20.3l-.1-4.8H36.3c-.7 0-1-.3-1-.9v-5.1H53v-4.7H35.3v-4.8c0-.6.3-1 1-1h19.5v-4.8H35.9c-4.4 0-6.3 1.4-6.3 5.9v14.6c0 3.7 1.7 5.6 5.9 5.6zm-29.2 0h14.4c4.6 0 6.1-1.6 6.1-5.6v-4.9c0-4-1.5-5.6-6.1-5.6h-15v-4.2c0-.6.3-.9 1-.9h18.8l.1-4.9H5.9c-4.2 0-5.9 1.8-5.9 5.6V31c0 4.5 2 5.9 6.3 5.9zm-.6-11.3H20c.7 0 1 .3 1 1v4.5c0 .7-.3 1-1 1H6.7c-.7 0-1-.3-1-.9v-5.6zm68.7-8.2c.3-.5.8-.8 1.4-.8h3v20.3h5.7V10.8H74.3c-1.5 0-3 .9-3.7 2.2L57.9 36.9h6l10.5-19.5zm.8 44.3H64.7v-5.2h18.5v-4.9H58.9v26.1H75c6.9 0 9.7-3.5 9.7-8.1.1-4.5-2.6-7.9-9.5-7.9zm0 11.3H64.7v-6.4h10.6c2.6 0 3.6 1.5 3.6 3.2 0 1.7-1 3.2-3.7 3.2zm26.6-73L91 10.8h18.7v18.7l10.8-10.8V0h-18.7zm.6 1.4h14.3l-21 6.7 6.7-6.7zM119 18.1l-7.9 7.9V9.4H96.9L119 2.2v15.9zM84.6 41.8H0v5h84.6v-5zm-41.5 9.9h-13v4.9h12.4c3.7 0 6.3 2.3 7.2 5.8H32.9v4.7h16.7c-.8 3.6-3.5 5.8-7.2 5.8H30.1v4.9H43c7.6 0 12.9-5.3 12.9-13.1 0-7.7-5.2-13-12.8-13zM23 64.2c2.2-1.1 3.2-2.9 3.2-5.3 0-4.3-2.9-7.2-9.7-7.2H0v26.1h17.4c6.9 0 9.7-3.2 9.7-7.5 0-2.9-1.2-5-4.1-6.1zM5.7 56.5h10.8c2.6 0 3.6 1.6 3.6 3.2s-1 2.9-3.6 2.9H5.7v-6.1zM17.6 73H5.7v-6.3h11.8c2.7 0 3.7 1.4 3.7 3.1 0 1.7-1 3.2-3.6 3.2z" fill="#424449"/></g><defs><clipPath id="clip0"><path fill="#fff" d="M0 0h120.4v77.8H0z"/></clipPath></defs></svg>