<svg width="139" height="16" viewBox="0 0 139 16" fill="none" xmlns="http://www.w3.org/2000/svg" class="zOK1b JYLbM" style="height: 15px; width: 139px;">
<g clip-path="url(#clip0_1563_64327)">
<path d="M10.5491 15.1403L7.50003 10.8457L4.48929 15.1403H0L5.16601 7.81321L0.324312 0.802246H4.8085L7.49748 4.69975L10.189 0.802246H14.7396L9.91066 7.67916L15.1124 15.1403H10.5491Z" fill="#C8102E"></path>
<path d="M23.3994 15.3779C22.2707 15.3779 21.2135 15.1933 20.2508 14.8291C19.2855 14.4624 18.4377 13.9413 17.7329 13.2736C17.0256 12.6084 16.4689 11.8168 16.0782 10.9189C15.6875 10.0211 15.4883 9.02962 15.4883 7.97494C15.4883 6.91773 15.6875 5.92628 16.0782 5.02842C16.4689 4.13055 17.0307 3.33638 17.7431 2.67119C18.4556 2.00601 19.3009 1.485 20.2585 1.11826C21.2135 0.751527 22.2631 0.566895 23.379 0.566895C24.5077 0.566895 25.5598 0.751527 26.5098 1.11573C27.4597 1.48247 28.2999 2.00348 29.0072 2.66867C29.712 3.33385 30.2738 4.12296 30.6722 5.01071C31.0706 5.90352 31.2723 6.8975 31.2723 7.96988C31.2723 9.02709 31.0706 10.0211 30.6722 10.9265C30.2738 11.8295 29.7146 12.6236 29.0072 13.2812C28.3024 13.9388 27.4623 14.4598 26.5123 14.824C25.5598 15.1908 24.5128 15.3779 23.3994 15.3779ZM23.379 3.91304C22.8045 3.91304 22.2733 4.00914 21.7932 4.20136C21.3157 4.39358 20.8918 4.6718 20.5292 5.03094C20.1665 5.39009 19.8831 5.82006 19.6839 6.31072C19.4822 6.80392 19.3826 7.36287 19.3826 7.96988C19.3826 8.56425 19.4847 9.12067 19.6865 9.62145C19.8856 10.1197 20.1691 10.5547 20.5241 10.9139C20.879 11.2705 21.3029 11.5487 21.7855 11.7409C22.2707 11.9331 22.807 12.0318 23.3816 12.0318C23.9561 12.0318 24.4899 11.9357 24.9674 11.7435C25.4449 11.5512 25.8688 11.273 26.2314 10.9139C26.594 10.5547 26.8775 10.1248 27.0792 9.6341C27.281 9.14091 27.3806 8.58195 27.3806 7.97494C27.3806 7.36793 27.2784 6.80898 27.0792 6.31578C26.8801 5.82259 26.5966 5.39262 26.2416 5.03347C25.8867 4.67686 25.4628 4.39864 24.9801 4.20642C24.4899 4.01167 23.9536 3.91304 23.379 3.91304Z" fill="#C8102E"></path>
<path d="M35.8536 15.4438C35.0849 15.4438 34.2831 15.2744 33.4736 14.943L33.1978 14.8292L34.1554 11.8372L34.4618 11.9257C34.9598 12.0699 35.4041 12.1432 35.7846 12.1432C35.9455 12.1432 36.0962 12.1306 36.2366 12.1027C36.6631 12.0218 37.0589 11.7057 37.4164 11.1593L37.4215 11.1543L31.8086 0.802246H35.9736L39.444 7.76515L43.0369 0.802246H46.9236L40.7795 12.1179C40.233 13.1347 39.5716 13.9263 38.8183 14.4751C38.0548 15.029 37.2044 15.3502 36.2928 15.4261C36.1472 15.4362 35.9991 15.4438 35.8536 15.4438Z" fill="#C8102E"></path>
<path d="M61.2204 15.1403L61.2026 7.7955L57.6428 13.6936H55.8527L52.2929 7.92196V15.1403H48.6387V0.802246H51.795L56.7873 8.99687L61.6954 0.802246H64.8543L64.8747 15.1403H61.2204Z" fill="#C8102E"></path>
<path d="M75.7402 15.1428V0.804688H87.5508V3.97378H79.5732V6.14384H83.0768C84.8159 6.14384 86.1718 6.51564 87.1014 7.25163C88.0539 8.00534 88.5365 9.10301 88.5365 10.5168C88.5365 11.9711 88.0028 13.1219 86.9507 13.9414C85.9216 14.7406 84.466 15.1453 82.6223 15.1453H75.7402V15.1428ZM82.4461 12.1482C83.1866 12.1482 83.7535 12.0091 84.1289 11.7334C84.4788 11.4754 84.6473 11.1036 84.6473 10.5952C84.6473 9.96041 84.42 9.11819 82.4461 9.11819H79.5732V12.1482H82.4461Z" fill="#C8102E"></path>
<path d="M102.044 15.1428L100.818 12.2089H94.8451L93.6142 15.1428H89.6152L96.0657 0.804688H99.6485L106.122 15.1428H102.044ZM99.5412 9.15613L97.8379 5.08411L96.127 9.15613H99.5412Z" fill="#C8102E"></path>
<path d="M117.579 15.1428V9.52792H111.953V15.1428H108.1V0.804688H111.953V6.20201H117.579V0.804688H121.432V15.1428H117.579Z" fill="#C8102E"></path>
<path d="M134.14 15.1428L129.595 9.70749L128.954 10.355V15.1428H125.238V0.804688H128.954V5.67847L133.803 0.804688H138.706L132.365 7.20864L139.02 15.1428H134.14Z" fill="#C8102E"></path>
</g>
<defs>
<clipPath id="clip0_1563_64327">
<rect width="139" height="15" fill="white" transform="translate(0 0.5)"></rect>
</clipPath>
</defs>
</svg>
